<svg version="1.1" id="Layer_1" xmlns="http://www.w3.org/2000/svg" xmlns:xlink="http://www.w3.org/1999/xlink" x="0px" y="0px"
	 width="100%" viewBox="0 0 500 500" enable-background="new 0 0 500 500" xml:space="preserve">
<path fill="#000000" opacity="1.000000" stroke="none" 
	d="
M330.000000,501.000000 
	C220.000031,501.000000 110.500053,501.000000 1.000059,501.000000 
	C1.000039,334.333405 1.000039,167.666794 1.000020,1.000148 
	C167.666565,1.000099 334.333130,1.000099 500.999756,1.000049 
	C500.999847,167.666519 500.999847,334.333038 500.999939,500.999786 
	C444.166656,501.000000 387.333344,501.000000 330.000000,501.000000 
M248.211136,237.071777 
	C246.517120,237.019379 244.823105,236.966980 242.626068,236.436234 
	C241.059845,236.018509 239.493622,235.600784 237.520630,234.596680 
	C233.067032,232.895935 228.711960,230.833618 224.134796,229.586349 
	C218.467270,228.041977 212.648911,226.459869 206.835220,226.188080 
	C199.018295,225.822632 191.073730,226.196121 183.328568,227.282959 
	C180.298950,227.708084 177.661301,230.926468 174.688568,233.028778 
	C174.688568,233.028778 174.748444,233.360840 174.748444,233.360840 
	C174.748444,233.360840 175.076309,233.092117 175.566055,233.436325 
	C175.280731,235.162216 174.995392,236.888123 174.570801,239.456467 
	C177.043533,238.352890 179.101944,237.434219 181.606979,236.316223 
	C181.335297,237.588409 181.139725,238.205460 181.085403,238.834686 
	C181.018539,239.609039 181.069443,240.393539 181.069443,241.171875 
	C190.772018,237.007645 200.446442,235.345718 210.540848,238.002869 
	C205.492996,239.724548 200.330917,240.656662 195.268097,241.971039 
	C188.869690,243.632156 182.611557,245.860947 176.178833,247.353043 
	C171.861465,248.354492 167.547119,249.728058 163.385880,245.410156 
	C161.308838,243.254944 156.993958,243.256378 153.691299,242.282318 
	C153.496002,242.715775 153.300690,243.149231 153.105392,243.582703 
	C153.942535,245.061234 154.779678,246.539780 155.622055,248.027573 
	C148.827835,250.925339 145.033035,243.933670 138.926300,243.219818 
	C140.258148,248.393494 137.477890,249.277695 133.856949,248.881989 
	C131.766327,248.653534 129.740219,247.851562 127.679413,247.330063 
	C122.167747,245.935226 116.653030,244.552444 112.212776,243.434967 
	C101.960793,256.404236 89.364502,256.636444 76.058197,254.894363 
	C88.000443,262.438171 101.234726,263.189728 114.922424,266.217834 
	C115.451035,266.428802 117.342651,267.935272 118.424454,267.487091 
	C123.448959,265.405365 128.445465,263.102142 133.074188,260.262421 
	C137.685379,257.433441 139.148148,257.729706 140.129501,263.319916 
	C145.403717,261.183350 150.394241,256.247437 156.713760,261.214752 
	C156.228973,262.542816 155.746155,263.865509 154.921036,266.125916 
	C157.285828,265.644012 159.001038,265.501556 160.564728,264.938354 
	C166.039047,262.966553 171.165100,259.322479 177.369232,260.672699 
	C189.215118,263.250793 201.003952,266.091003 212.875259,268.836029 
	C208.627319,272.732574 203.177872,273.114502 198.830246,269.967438 
	C198.244568,269.543488 197.413406,269.397705 196.670532,269.262299 
	C193.209946,268.631561 189.730286,268.101715 186.278580,267.427643 
	C184.650238,267.109680 183.069366,266.548676 181.466980,266.097778 
	C181.312775,266.430939 181.158554,266.764130 181.004349,267.097290 
	C182.133499,268.425842 183.262634,269.754395 184.320450,270.999023 
	C182.344208,271.404907 180.652191,271.752411 178.372803,272.130127 
	C177.906281,272.795349 177.439758,273.460571 177.134125,274.790375 
	C179.325104,278.777252 182.621613,280.663666 187.242340,280.636658 
	C192.529358,280.605713 197.818771,280.910278 203.106415,281.090668 
	C206.378967,281.202271 209.860840,282.147003 212.883728,281.343903 
	C223.266068,278.585571 233.607727,275.557983 243.718628,271.944031 
	C248.651047,270.181030 252.908493,270.727600 256.882019,273.265045 
	C262.235931,276.684021 267.530365,280.341797 272.219391,284.593018 
	C274.454376,286.619324 275.942230,290.162140 276.327209,293.200653 
	C276.484436,294.441589 273.024872,296.666992 270.847992,297.539948 
	C268.307739,298.558655 265.323090,298.400604 262.616730,299.089172 
	C258.042236,300.253021 253.534943,301.681091 248.306656,302.923126 
	C245.476044,300.738953 242.645416,298.554749 239.814789,296.370544 
	C239.254044,296.518433 238.693314,296.666321 238.132584,296.814178 
	C238.354813,299.306213 237.681366,303.099091 238.996140,304.004364 
	C241.332352,305.612915 244.873550,305.471436 248.127579,306.725494 
	C248.987061,307.461700 249.729965,308.540894 250.724747,308.878998 
	C257.715271,311.255066 264.767517,313.448669 271.778656,315.765320 
	C274.560944,316.684631 277.288818,317.768585 280.041443,318.777588 
	C279.825653,319.396484 279.609863,320.015350 279.394073,320.634247 
	C268.882538,317.523743 258.371002,314.413239 246.397705,310.870178 
	C247.427536,314.300171 247.791611,316.652130 248.804657,318.679840 
	C252.267853,325.611542 251.472122,329.503845 244.834488,333.770111 
	C242.117569,335.516357 238.921753,336.517456 235.294968,337.872864 
	C234.865021,337.919434 234.435059,337.966003 233.278732,338.118561 
	C227.005981,341.034302 220.802521,342.966125 215.327652,335.974243 
	C213.390945,339.719208 213.556259,342.310303 216.985855,343.506073 
	C223.337723,345.720673 229.708435,348.032715 236.249969,349.516418 
	C246.093872,351.749146 256.057617,353.523987 266.037170,355.060120 
	C271.473969,355.897003 277.085205,356.377197 282.548035,356.002136 
	C286.346680,355.741364 290.059296,353.842651 293.753418,352.517090 
	C304.400482,348.696747 315.232269,345.331207 323.534668,336.874725 
	C327.427032,332.910156 332.001740,329.615479 336.693817,325.657318 
	C336.584229,327.007477 336.868073,328.247742 336.382538,328.762909 
	C331.300415,334.155243 326.862549,340.682190 320.739502,344.439301 
	C312.081909,349.751587 301.879547,352.477875 292.854584,357.281097 
	C285.311066,361.295898 278.167633,361.051086 270.344757,359.024628 
	C265.017120,357.644562 259.414124,357.327637 253.934235,356.535339 
	C254.433243,358.195129 255.390213,358.825562 255.986221,359.701569 
	C259.318420,364.599121 262.381317,369.900421 259.266510,374.131256 
	C256.870392,377.385925 254.095230,380.469238 251.025208,383.084869 
	C248.702881,385.063538 245.462433,385.925415 242.956894,387.735870 
	C236.244858,392.585846 229.245941,394.474915 219.836395,390.111511 
	C221.316742,393.317841 221.874481,396.816528 223.287552,397.205200 
	C230.981003,399.321045 238.945404,402.216949 246.702499,401.914886 
	C257.832520,401.481506 268.801605,397.805786 279.954437,396.832703 
	C292.757263,395.715698 301.477356,389.070221 309.348572,379.746582 
	C317.481689,370.112701 326.364349,361.111633 335.513489,351.189148 
	C334.304718,353.843201 333.790344,356.219391 332.394440,357.832886 
	C324.061035,367.465240 315.451172,376.858246 307.103027,386.478180 
	C304.781403,389.153442 302.142822,392.078857 301.239502,395.331055 
	C300.021576,399.715851 300.260468,404.523773 300.022949,409.157745 
	C299.724884,414.973480 294.900330,418.247223 289.254333,416.357391 
	C287.767090,415.859589 286.265289,415.405304 284.770172,414.931030 
	C284.372589,415.267212 283.975006,415.603394 283.577423,415.939606 
	C284.371002,417.640167 284.808868,419.671234 286.024567,420.979584 
	C289.731598,424.969177 294.809296,426.391235 299.694550,424.713867 
	C310.296112,421.073700 320.660370,416.726257 331.049744,412.491455 
	C335.918640,410.506866 339.425568,407.313568 341.232178,401.906494 
	C344.202515,393.016418 347.717712,384.286530 351.418762,375.667542 
	C357.005127,362.657959 360.235046,349.089661 362.056305,335.117645 
	C362.527222,331.504883 363.171875,327.914764 363.736725,324.314240 
	C364.198669,324.255310 364.660614,324.196350 365.122528,324.137421 
	C366.342041,326.489594 367.561554,328.841766 368.776733,331.180450 
	C372.756561,327.132843 371.249603,321.135681 365.757141,317.092621 
	C359.271027,312.318115 352.702637,307.541290 346.860962,302.032654 
	C338.457703,294.108459 332.691101,284.221313 328.181641,273.604004 
	C326.742218,270.214966 327.966461,268.894348 331.328125,268.027893 
	C339.498779,265.921906 347.476501,262.971283 355.719116,261.265076 
	C365.827087,259.172699 376.125641,258.000916 386.341797,256.431152 
	C386.532379,257.102386 386.722931,257.773621 386.913483,258.444855 
	C377.668365,261.986206 368.423279,265.527588 357.942352,269.542297 
	C360.489655,269.688995 362.100677,270.172546 363.475891,269.795593 
	C370.735718,267.805542 377.940063,265.611938 385.155762,263.462524 
	C390.324646,261.922852 394.913452,257.672729 401.065369,261.434113 
	C404.133728,263.310150 408.117615,263.704193 411.704865,264.705933 
	C412.635468,264.965790 413.976166,264.632568 414.543213,265.179047 
	C418.666351,269.152771 420.526581,265.891510 423.210754,262.797058 
	C420.878357,261.205231 418.991486,259.917450 417.104614,258.629639 
	C420.467163,258.666565 423.286774,259.828430 426.179230,260.765411 
	C427.308533,261.131256 429.262726,261.503021 429.675354,260.969849 
	C430.414398,260.014862 430.909271,257.964264 430.359192,257.111847 
	C429.297852,255.467300 427.615051,254.013718 425.872498,253.062302 
	C422.163635,251.037338 418.125214,249.605011 414.464020,247.507233 
	C411.658142,245.899551 409.462433,243.127502 406.571259,241.789948 
	C401.358459,239.378342 395.521027,238.221970 390.500183,235.511826 
	C382.289459,231.079880 373.675934,229.523392 364.598694,230.134140 
	C361.880005,230.317047 359.239807,231.666016 356.563629,232.480774 
	C356.644012,233.012177 356.724396,233.543594 356.804779,234.074997 
	C368.524719,233.622528 380.110413,233.729828 390.970367,241.791199 
	C387.882874,242.015900 385.556976,242.857819 383.802216,242.192734 
	C377.306274,239.730621 370.956207,237.621811 363.880524,239.872055 
	C362.559448,240.292175 360.771698,238.967758 359.167572,238.836563 
	C356.436615,238.613266 353.639221,238.383240 350.945709,238.736053 
	C347.854370,239.140991 344.870605,240.307938 341.792480,240.893555 
	C339.708527,241.290024 337.486938,241.002884 335.423157,241.458008 
	C328.338318,243.020386 326.838928,241.527222 328.742065,234.475449 
	C332.988617,218.740723 343.027252,207.003052 355.140533,196.835800 
	C361.175293,191.770477 367.770752,187.377151 373.875244,182.389389 
	C377.812805,179.172134 376.824341,173.213394 372.441254,171.827927 
	C372.007233,173.466965 371.573242,175.106018 371.139221,176.745056 
	C370.696198,176.773132 370.253174,176.801224 369.810120,176.829300 
	C369.201843,174.929947 368.364319,173.070892 368.021973,171.124756 
	C365.585510,157.274017 364.182434,143.218918 358.125763,130.194031 
	C355.549469,124.653717 353.639893,118.757950 351.898926,112.883949 
	C348.121338,100.138260 341.765472,90.114990 327.964081,86.176559 
	C320.515137,84.050888 313.554047,80.209534 306.100433,78.108978 
	C302.417328,77.071022 297.896820,77.491951 294.165070,78.614861 
	C291.145386,79.523491 289.084747,82.603577 290.701111,86.508400 
	C301.382843,83.225876 306.075073,86.877968 306.016510,98.099716 
	C306.002625,100.765709 305.692474,103.481186 306.099030,106.083221 
	C306.466217,108.433662 307.043945,111.181496 308.537720,112.851822 
	C315.333862,120.451141 322.537872,127.683846 329.483124,135.152634 
	C331.979065,137.836761 334.160370,140.813446 336.485291,143.656601 
	C334.348602,143.132263 332.734985,142.063782 331.413879,140.709854 
	C323.182526,132.274094 315.362061,123.396400 306.677643,115.461655 
	C302.574860,111.713028 297.148010,108.745300 291.806274,107.175003 
	C283.466553,104.723381 274.723297,103.535263 266.088379,102.224213 
	C254.989090,100.539009 243.878937,99.213898 232.778976,102.825096 
	C228.570297,104.194336 226.796997,106.419144 227.327133,110.874718 
	C234.450974,109.205528 241.339874,109.475388 247.168686,113.447723 
	C252.813782,117.294846 257.759064,122.177292 262.959076,126.666016 
	C266.324799,129.571365 266.864319,133.107071 264.793396,136.985504 
	C263.348663,139.691177 261.749023,142.314163 259.592194,146.062790 
	C268.901978,144.475037 276.972137,142.940811 285.098297,141.808273 
	C287.561157,141.465027 290.368317,141.723221 292.690430,142.586502 
	C299.896332,145.265488 306.887695,148.517166 314.069031,151.267929 
	C323.179047,154.757507 330.639496,160.205338 335.685242,168.778900 
	C332.769287,166.874664 330.505585,163.887283 327.499725,162.409988 
	C316.819977,157.161240 306.127289,151.749207 294.946991,147.789963 
	C289.519409,145.867935 282.996979,146.816620 276.974976,146.885483 
	C273.855225,146.921158 270.730682,147.796936 267.634521,148.422775 
	C254.189987,151.140381 240.719269,153.745789 227.336868,156.743713 
	C222.883438,157.741379 221.335037,162.020828 222.661819,165.871841 
	C226.129395,164.551056 229.597519,163.230057 233.798462,162.048187 
	C234.712341,161.376312 235.626221,160.704422 236.617767,160.167587 
	C236.617767,160.167587 236.772491,160.185577 237.225784,160.723785 
	C239.504013,164.446747 243.162155,165.052917 247.702911,165.342438 
	C250.440002,167.430237 253.433472,169.261353 255.847534,171.672577 
	C258.694489,174.516129 259.818481,177.872650 257.489594,181.936096 
	C255.906128,184.698990 255.085251,187.898941 253.708435,191.459259 
	C255.928574,191.242188 257.356354,191.102600 259.931549,190.850815 
	C256.569275,192.696548 254.279694,193.953415 251.188431,195.143051 
	C241.836929,196.005661 242.462311,198.080612 243.860413,208.757294 
	C246.549957,205.924423 248.828918,203.524048 251.977081,201.049103 
	C261.155121,202.955139 270.363892,204.733444 279.473419,206.924301 
	C280.649170,207.207092 282.409332,210.234558 282.014709,210.946747 
	C280.561035,213.570496 278.671356,216.225693 276.302673,218.020554 
	C267.676239,224.557266 258.790070,230.751205 249.526749,237.097809 
	C249.526749,237.097809 249.054993,237.158234 248.211136,237.071777 
z"/>
<path fill="#252122" opacity="1.000000" stroke="none" 
	d="
M235.943787,337.857513 
	C238.921753,336.517456 242.117569,335.516357 244.834488,333.770111 
	C251.472122,329.503845 252.267853,325.611542 248.804657,318.679840 
	C247.791611,316.652130 247.427536,314.300171 246.397705,310.870178 
	C258.371002,314.413239 268.882538,317.523743 279.394073,320.634247 
	C279.609863,320.015350 279.825653,319.396484 280.041443,318.777588 
	C277.288818,317.768585 274.560944,316.684631 271.778656,315.765320 
	C264.767517,313.448669 257.715271,311.255066 250.724747,308.878998 
	C249.729965,308.540894 248.987061,307.461700 248.328430,306.362183 
	C251.813538,305.488586 249.833466,304.153564 248.999390,302.998077 
	C253.534943,301.681091 258.042236,300.253021 262.616730,299.089172 
	C265.323090,298.400604 268.307739,298.558655 270.847992,297.539948 
	C273.024872,296.666992 276.484436,294.441589 276.327209,293.200653 
	C275.942230,290.162140 274.454376,286.619324 272.219391,284.593018 
	C267.530365,280.341797 262.235931,276.684021 256.882019,273.265045 
	C252.908493,270.727600 248.651047,270.181030 243.718628,271.944031 
	C233.607727,275.557983 223.266068,278.585571 212.883728,281.343903 
	C209.860840,282.147003 206.378967,281.202271 203.106415,281.090668 
	C197.818771,280.910278 192.529358,280.605713 187.242340,280.636658 
	C182.621613,280.663666 179.325104,278.777252 177.409653,274.403168 
	C178.110184,273.377258 178.535172,272.738586 178.960175,272.099915 
	C180.652191,271.752411 182.344208,271.404907 184.320450,270.999023 
	C183.262634,269.754395 182.133499,268.425842 181.004349,267.097290 
	C181.158554,266.764130 181.312775,266.430939 181.466980,266.097778 
	C183.069366,266.548676 184.650238,267.109680 186.278580,267.427643 
	C189.730286,268.101715 193.209946,268.631561 196.670532,269.262299 
	C197.413406,269.397705 198.244568,269.543488 198.830246,269.967438 
	C203.177872,273.114502 208.627319,272.732574 212.875259,268.836029 
	C201.003952,266.091003 189.215118,263.250793 177.369232,260.672699 
	C171.165100,259.322479 166.039047,262.966553 160.564728,264.938354 
	C159.001038,265.501556 157.285828,265.644012 154.921036,266.125916 
	C155.746155,263.865509 156.228973,262.542816 156.713760,261.214752 
	C150.394241,256.247437 145.403717,261.183350 140.129501,263.319916 
	C139.148148,257.729706 137.685379,257.433441 133.074188,260.262421 
	C128.445465,263.102142 123.448959,265.405365 118.424454,267.487091 
	C117.342651,267.935272 115.451035,266.428802 114.922424,266.217834 
	C101.234726,263.189728 88.000443,262.438171 76.058197,254.894363 
	C89.364502,256.636444 101.960793,256.404236 112.212776,243.434967 
	C116.653030,244.552444 122.167747,245.935226 127.679413,247.330063 
	C129.740219,247.851562 131.766327,248.653534 133.856949,248.881989 
	C137.477890,249.277695 140.258148,248.393494 138.926300,243.219818 
	C145.033035,243.933670 148.827835,250.925339 155.622055,248.027573 
	C154.779678,246.539780 153.942535,245.061234 153.105392,243.582703 
	C153.300690,243.149231 153.496002,242.715775 153.691299,242.282318 
	C156.993958,243.256378 161.308838,243.254944 163.385880,245.410156 
	C167.547119,249.728058 171.861465,248.354492 176.178833,247.353043 
	C182.611557,245.860947 188.869690,243.632156 195.268097,241.971039 
	C200.330917,240.656662 205.492996,239.724548 210.540848,238.002869 
	C200.446442,235.345718 190.772018,237.007645 181.069443,241.171875 
	C181.069443,240.393539 181.018539,239.609039 181.085403,238.834686 
	C181.139725,238.205460 181.335297,237.588409 181.606979,236.316223 
	C179.101944,237.434219 177.043533,238.352890 174.570801,239.456467 
	C174.995392,236.888123 175.280731,235.162216 175.264923,233.207748 
	C174.963776,232.979172 174.845123,232.872665 174.845123,232.872681 
	C177.661301,230.926468 180.298950,227.708084 183.328568,227.282959 
	C191.073730,226.196121 199.018295,225.822632 206.835220,226.188080 
	C212.648911,226.459869 218.467270,228.041977 224.134796,229.586349 
	C228.711960,230.833618 233.067032,232.895935 237.457855,235.098328 
	C236.031830,236.678711 234.668564,237.757446 233.305298,238.836182 
	C234.934402,239.561630 236.508362,240.683807 238.205490,240.919647 
	C240.760529,241.274704 243.401733,241.009888 246.003326,241.002808 
	C246.000336,240.997055 245.991226,240.987366 245.974152,241.365997 
	C245.967773,242.502396 245.978455,243.260178 245.995880,244.010376 
	C246.002640,244.002792 246.016098,243.987610 245.591339,243.986908 
	C242.061386,244.319992 238.937439,244.541397 235.862396,245.055573 
	C234.931717,245.211197 234.136551,246.177353 233.279297,246.772247 
	C234.162094,247.514511 235.000916,248.822891 235.935684,248.895447 
	C239.047043,249.136978 242.234344,249.242386 245.315231,248.826889 
	C249.409515,248.274719 251.205475,245.505280 250.821777,241.426544 
	C250.684097,239.963043 250.282776,238.524338 250.001785,237.074341 
	C258.790070,230.751205 267.676239,224.557266 276.302673,218.020554 
	C278.671356,216.225693 280.561035,213.570496 282.014709,210.946747 
	C282.409332,210.234558 280.649170,207.207092 279.473419,206.924301 
	C270.363892,204.733444 261.155121,202.955139 251.507294,200.697128 
	C251.355042,198.633530 251.672592,196.921921 251.990128,195.210297 
	C254.279694,193.953415 256.569275,192.696548 259.931549,190.850815 
	C257.356354,191.102600 255.928574,191.242188 253.708435,191.459259 
	C255.085251,187.898941 255.906128,184.698990 257.489594,181.936096 
	C259.818481,177.872650 258.694489,174.516129 255.847534,171.672577 
	C253.433472,169.261353 250.440002,167.430237 247.362732,164.785126 
	C246.971283,162.805191 246.919998,161.382568 247.134338,159.922119 
	C246.610321,159.245270 245.820709,158.606277 244.821869,157.718201 
	C242.755234,157.332794 240.897827,157.196487 238.747482,157.217041 
	C237.893875,158.311142 237.333176,159.248352 236.772491,160.185577 
	C236.772491,160.185577 236.617767,160.167587 236.205017,160.097626 
	C234.883377,160.654800 233.974503,161.281921 233.065643,161.909058 
	C229.597519,163.230057 226.129395,164.551056 222.661819,165.871841 
	C221.335037,162.020828 222.883438,157.741379 227.336868,156.743713 
	C240.719269,153.745789 254.189987,151.140381 267.634521,148.422775 
	C270.730682,147.796936 273.855225,146.921158 276.974976,146.885483 
	C282.996979,146.816620 289.519409,145.867935 294.946991,147.789963 
	C306.127289,151.749207 316.819977,157.161240 327.499725,162.409988 
	C330.505585,163.887283 332.769287,166.874664 335.685242,168.778900 
	C330.639496,160.205338 323.179047,154.757507 314.069031,151.267929 
	C306.887695,148.517166 299.896332,145.265488 292.690430,142.586502 
	C290.368317,141.723221 287.561157,141.465027 285.098297,141.808273 
	C276.972137,142.940811 268.901978,144.475037 259.592194,146.062790 
	C261.749023,142.314163 263.348663,139.691177 264.793396,136.985504 
	C266.864319,133.107071 266.324799,129.571365 262.959076,126.666016 
	C257.759064,122.177292 252.813782,117.294846 247.168686,113.447723 
	C241.339874,109.475388 234.450974,109.205528 227.327133,110.874718 
	C226.796997,106.419144 228.570297,104.194336 232.778976,102.825096 
	C243.878937,99.213898 254.989090,100.539009 266.088379,102.224213 
	C274.723297,103.535263 283.466553,104.723381 291.806274,107.175003 
	C297.148010,108.745300 302.574860,111.713028 306.677643,115.461655 
	C315.362061,123.396400 323.182526,132.274094 331.413879,140.709854 
	C332.734985,142.063782 334.348602,143.132263 336.485291,143.656601 
	C334.160370,140.813446 331.979065,137.836761 329.483124,135.152634 
	C322.537872,127.683846 315.333862,120.451141 308.537720,112.851822 
	C307.043945,111.181496 306.466217,108.433662 306.099030,106.083221 
	C305.692474,103.481186 306.002625,100.765709 306.016510,98.099716 
	C306.075073,86.877968 301.382843,83.225876 290.701111,86.508400 
	C289.084747,82.603577 291.145386,79.523491 294.165070,78.614861 
	C297.896820,77.491951 302.417328,77.071022 306.100433,78.108978 
	C313.554047,80.209534 320.515137,84.050888 327.964081,86.176559 
	C341.765472,90.114990 348.121338,100.138260 351.898926,112.883949 
	C353.639893,118.757950 355.549469,124.653717 358.125763,130.194031 
	C364.182434,143.218918 365.585510,157.274017 368.021973,171.124756 
	C368.364319,173.070892 369.201843,174.929947 369.810120,176.829300 
	C370.253174,176.801224 370.696198,176.773132 371.139221,176.745056 
	C371.573242,175.106018 372.007233,173.466965 372.442841,171.828476 
	C376.824341,173.213394 377.812805,179.172134 373.875244,182.389389 
	C367.770752,187.377151 361.175293,191.770477 355.140533,196.835800 
	C343.027252,207.003052 332.988617,218.740723 328.742065,234.475449 
	C326.838928,241.527222 328.338318,243.020386 335.423157,241.458008 
	C337.486938,241.002884 339.708527,241.290024 341.792480,240.893555 
	C344.870605,240.307938 347.854370,239.140991 350.945709,238.736053 
	C353.639221,238.383240 356.436615,238.613266 359.167572,238.836563 
	C360.771698,238.967758 362.559448,240.292175 363.880524,239.872055 
	C370.956207,237.621811 377.306274,239.730621 383.802216,242.192734 
	C385.556976,242.857819 387.882874,242.015900 390.970367,241.791199 
	C380.110413,233.729828 368.524719,233.622528 356.804779,234.074997 
	C356.724396,233.543594 356.644012,233.012177 356.563629,232.480774 
	C359.239807,231.666016 361.880005,230.317047 364.598694,230.134140 
	C373.675934,229.523392 382.289459,231.079880 390.500183,235.511826 
	C395.521027,238.221970 401.358459,239.378342 406.571259,241.789948 
	C409.462433,243.127502 411.658142,245.899551 414.464020,247.507233 
	C418.125214,249.605011 422.163635,251.037338 425.872498,253.062302 
	C427.615051,254.013718 429.297852,255.467300 430.359192,257.111847 
	C430.909271,257.964264 430.414398,260.014862 429.675354,260.969849 
	C429.262726,261.503021 427.308533,261.131256 426.179230,260.765411 
	C423.286774,259.828430 420.467163,258.666565 417.104614,258.629639 
	C418.991486,259.917450 420.878357,261.205231 423.210754,262.797058 
	C420.526581,265.891510 418.666351,269.152771 414.543213,265.179047 
	C413.976166,264.632568 412.635468,264.965790 411.704865,264.705933 
	C408.117615,263.704193 404.133728,263.310150 401.065369,261.434113 
	C394.913452,257.672729 390.324646,261.922852 385.155762,263.462524 
	C377.940063,265.611938 370.735718,267.805542 363.475891,269.795593 
	C362.100677,270.172546 360.489655,269.688995 357.942352,269.542297 
	C368.423279,265.527588 377.668365,261.986206 386.913483,258.444855 
	C386.722931,257.773621 386.532379,257.102386 386.341797,256.431152 
	C376.125641,258.000916 365.827087,259.172699 355.719116,261.265076 
	C347.476501,262.971283 339.498779,265.921906 331.328125,268.027893 
	C327.966461,268.894348 326.742218,270.214966 328.181641,273.604004 
	C332.691101,284.221313 338.457703,294.108459 346.860962,302.032654 
	C352.702637,307.541290 359.271027,312.318115 365.757141,317.092621 
	C371.249603,321.135681 372.756561,327.132843 368.778870,331.187195 
	C367.561554,328.841766 366.342041,326.489594 365.122528,324.137421 
	C364.660614,324.196350 364.198669,324.255310 363.736725,324.314240 
	C363.171875,327.914764 362.527222,331.504883 362.056305,335.117645 
	C360.235046,349.089661 357.005127,362.657959 351.418762,375.667542 
	C347.717712,384.286530 344.202515,393.016418 341.232178,401.906494 
	C339.425568,407.313568 335.918640,410.506866 331.049744,412.491455 
	C320.660370,416.726257 310.296112,421.073700 299.694550,424.713867 
	C294.809296,426.391235 289.731598,424.969177 286.024567,420.979584 
	C284.808868,419.671234 284.371002,417.640167 283.577423,415.939606 
	C283.975006,415.603394 284.372589,415.267212 284.770172,414.931030 
	C286.265289,415.405304 287.767090,415.859589 289.254333,416.357391 
	C294.900330,418.247223 299.724884,414.973480 300.022949,409.157745 
	C300.260468,404.523773 300.021576,399.715851 301.239502,395.331055 
	C302.142822,392.078857 304.781403,389.153442 307.103027,386.478180 
	C315.451172,376.858246 324.061035,367.465240 332.394440,357.832886 
	C333.790344,356.219391 334.304718,353.843201 335.513489,351.189148 
	C326.364349,361.111633 317.481689,370.112701 309.348572,379.746582 
	C301.477356,389.070221 292.757263,395.715698 279.954437,396.832703 
	C268.801605,397.805786 257.832520,401.481506 246.702499,401.914886 
	C238.945404,402.216949 230.981003,399.321045 223.287552,397.205200 
	C221.874481,396.816528 221.316742,393.317841 219.836395,390.111511 
	C229.245941,394.474915 236.244858,392.585846 242.956894,387.735870 
	C245.462433,385.925415 248.702881,385.063538 251.025208,383.084869 
	C254.095230,380.469238 256.870392,377.385925 259.266510,374.131256 
	C262.381317,369.900421 259.318420,364.599121 255.986221,359.701569 
	C255.390213,358.825562 254.433243,358.195129 253.934235,356.535339 
	C259.414124,357.327637 265.017120,357.644562 270.344757,359.024628 
	C278.167633,361.051086 285.311066,361.295898 292.854584,357.281097 
	C301.879547,352.477875 312.081909,349.751587 320.739502,344.439301 
	C326.862549,340.682190 331.300415,334.155243 336.382538,328.762909 
	C336.868073,328.247742 336.584229,327.007477 336.693817,325.657318 
	C332.001740,329.615479 327.427032,332.910156 323.534668,336.874725 
	C315.232269,345.331207 304.400482,348.696747 293.753418,352.517090 
	C290.059296,353.842651 286.346680,355.741364 282.548035,356.002136 
	C277.085205,356.377197 271.473969,355.897003 266.037170,355.060120 
	C256.057617,353.523987 246.093872,351.749146 236.249969,349.516418 
	C229.708435,348.032715 223.337723,345.720673 216.985855,343.506073 
	C213.556259,342.310303 213.390945,339.719208 215.327652,335.974243 
	C220.802521,342.966125 227.005981,341.034302 233.572800,338.434082 
	C234.270264,340.935577 234.673676,343.121521 235.077087,345.307495 
	C236.024841,345.024689 237.397247,345.042633 237.847229,344.407257 
	C239.849792,341.579742 238.170532,339.588593 235.943787,337.857513 
M293.949097,318.686981 
	C293.949097,318.686981 293.572296,318.758179 293.572296,318.758179 
	C293.572296,318.758179 293.830200,319.144379 294.348541,319.528748 
	C295.489502,319.640320 296.630463,319.751892 297.771423,319.863495 
	C297.774445,319.527710 297.777496,319.191925 297.780548,318.856140 
	C296.560425,318.856140 295.340302,318.856140 293.949097,318.686981 
M236.233841,252.159348 
	C231.308502,252.514847 232.374802,255.999969 234.016144,258.019806 
	C235.589172,259.955566 238.655045,260.641754 240.987854,262.008545 
	C242.737885,263.033875 244.366882,264.266022 246.047836,265.408966 
	C246.999680,266.056152 248.277405,267.442932 248.824509,267.197144 
	C249.780319,266.767700 250.718994,265.407776 250.901047,264.310974 
	C251.519760,260.583710 248.987915,257.448944 244.441452,257.298431 
	C240.621017,257.171936 238.240692,255.929657 236.233841,252.159348 
M274.001251,187.445099 
	C283.881561,182.573090 294.801880,184.617630 306.229492,183.038254 
	C293.472870,179.834167 267.539734,184.519852 262.450165,191.023224 
	C266.470428,189.821472 269.873413,188.804245 274.001251,187.445099 
M283.125153,318.242188 
	C283.143677,319.070038 283.129364,320.619537 283.185394,320.622070 
	C285.805420,320.741150 288.431519,320.725708 291.056946,320.725708 
	C291.083008,320.317108 291.109070,319.908539 291.135162,319.499939 
	C288.696808,319.128418 286.258453,318.756897 283.125153,318.242188 
M250.469437,162.350388 
	C250.041931,162.471222 249.614410,162.592056 249.186905,162.712875 
	C249.574432,163.179199 249.961960,163.645508 250.349487,164.111832 
	C250.467834,163.674438 250.586166,163.237030 250.469437,162.350388 
z"/>
<path fill="#383637" opacity="1.000000" stroke="none" 
	d="
M251.589279,195.176666 
	C251.672592,196.921921 251.355042,198.633530 251.072693,200.734406 
	C248.828918,203.524048 246.549957,205.924423 243.860413,208.757294 
	C242.462311,198.080612 241.836929,196.005661 251.589279,195.176666 
z"/>
<path fill="#302D2F" opacity="1.000000" stroke="none" 
	d="
M248.653015,302.960602 
	C249.833466,304.153564 251.813538,305.488586 248.219971,306.030457 
	C244.873550,305.471436 241.332352,305.612915 238.996140,304.004364 
	C237.681366,303.099091 238.354813,299.306213 238.132584,296.814178 
	C238.693314,296.666321 239.254044,296.518433 239.814789,296.370544 
	C242.645416,298.554749 245.476044,300.738953 248.653015,302.960602 
z"/>
<path fill="#262324" opacity="1.000000" stroke="none" 
	d="
M243.129089,236.914581 
	C244.823105,236.966980 246.517120,237.019379 248.475464,237.413910 
	C248.760300,247.102890 243.834671,250.588120 236.350235,246.902924 
	C239.408524,245.980515 242.712311,244.984055 246.016098,243.987610 
	C246.016098,243.987610 246.002640,244.002792 246.206497,243.799469 
	C246.270645,242.726547 246.130936,241.856964 245.991226,240.987366 
	C245.991226,240.987366 246.000336,240.997055 245.814713,240.692352 
	C242.523468,239.901779 239.417847,239.415894 235.449707,238.795059 
	C238.629608,238.016388 240.879349,237.465500 243.129089,236.914581 
z"/>
<path fill="#413D3E" opacity="1.000000" stroke="none" 
	d="
M245.591339,243.986908 
	C242.712311,244.984055 239.408524,245.980515 236.350235,246.902924 
	C243.834671,250.588120 248.760300,247.102890 248.897400,237.457138 
	C249.054993,237.158234 249.526749,237.097809 249.764267,237.086060 
	C250.282776,238.524338 250.684097,239.963043 250.821777,241.426544 
	C251.205475,245.505280 249.409515,248.274719 245.315231,248.826889 
	C242.234344,249.242386 239.047043,249.136978 235.935684,248.895447 
	C235.000916,248.822891 234.162094,247.514511 233.279297,246.772247 
	C234.136551,246.177353 234.931717,245.211197 235.862396,245.055573 
	C238.937439,244.541397 242.061386,244.319992 245.591339,243.986908 
z"/>
<path fill="#3C393A" opacity="1.000000" stroke="none" 
	d="
M236.999146,160.454681 
	C237.333176,159.248352 237.893875,158.311142 238.882278,157.401276 
	C239.515305,157.659302 239.751236,157.852585 240.138824,158.363983 
	C242.280579,159.145126 244.301331,159.570770 246.458679,159.986359 
	C246.595276,159.976288 246.868729,159.959946 246.868729,159.959946 
	C246.919998,161.382568 246.971283,162.805191 247.048660,164.656067 
	C243.162155,165.052917 239.504013,164.446747 236.999146,160.454681 
z"/>
<path fill="#3D3B3C" opacity="1.000000" stroke="none" 
	d="
M242.877579,236.675415 
	C240.879349,237.465500 238.629608,238.016388 235.449707,238.795059 
	C239.417847,239.415894 242.523468,239.901779 245.817688,240.698120 
	C243.401733,241.009888 240.760529,241.274704 238.205490,240.919647 
	C236.508362,240.683807 234.934402,239.561630 233.305298,238.836182 
	C234.668564,237.757446 236.031830,236.678711 237.661240,235.391510 
	C239.493622,235.600784 241.059845,236.018509 242.877579,236.675415 
z"/>
<path fill="#332F30" opacity="1.000000" stroke="none" 
	d="
M235.619385,337.865173 
	C238.170532,339.588593 239.849792,341.579742 237.847229,344.407257 
	C237.397247,345.042633 236.024841,345.024689 235.077087,345.307495 
	C234.673676,343.121521 234.270264,340.935577 233.935989,338.381104 
	C234.435059,337.966003 234.865021,337.919434 235.619385,337.865173 
z"/>
<path fill="#3C393A" opacity="1.000000" stroke="none" 
	d="
M233.432037,161.978607 
	C233.974503,161.281921 234.883377,160.654800 236.166168,160.030090 
	C235.626221,160.704422 234.712341,161.376312 233.432037,161.978607 
z"/>
<path fill="#E9D7DB" opacity="1.000000" stroke="none" 
	d="
M178.666473,272.115021 
	C178.535172,272.738586 178.110184,273.377258 177.329208,274.070862 
	C177.439758,273.460571 177.906281,272.795349 178.666473,272.115021 
z"/>
<path fill="#252122" opacity="1.000000" stroke="none" 
	d="
M175.020050,233.035645 
	C175.076309,233.092117 174.748444,233.360840 174.748444,233.360840 
	C174.748444,233.360840 174.688568,233.028778 174.766846,232.950714 
	C174.845123,232.872665 174.963776,232.979172 175.020050,233.035645 
z"/>
<path fill="#3D393A" opacity="1.000000" stroke="none" 
	d="
M236.593063,252.297668 
	C238.240692,255.929657 240.621017,257.171936 244.441452,257.298431 
	C248.987915,257.448944 251.519760,260.583710 250.901047,264.310974 
	C250.718994,265.407776 249.780319,266.767700 248.824509,267.197144 
	C248.277405,267.442932 246.999680,266.056152 246.047836,265.408966 
	C244.366882,264.266022 242.737885,263.033875 240.987854,262.008545 
	C238.655045,260.641754 235.589172,259.955566 234.016144,258.019806 
	C232.374802,255.999969 231.308502,252.514847 236.593063,252.297668 
M235.425461,257.474640 
	C235.802261,257.760620 236.179062,258.046600 236.555862,258.332581 
	C236.555862,256.893005 236.555862,255.453445 236.555862,254.013885 
	C236.104782,254.044357 235.653702,254.074844 235.202621,254.105331 
	C235.202621,255.040680 235.202621,255.976044 235.425461,257.474640 
M248.895523,262.788940 
	C248.360733,262.660248 247.825958,262.531555 247.291199,262.402832 
	C247.582321,263.235046 247.873459,264.067230 248.164597,264.899445 
	C248.432236,264.388489 248.699875,263.877502 248.895523,262.788940 
M243.303314,258.972961 
	C242.381805,259.019104 241.460281,259.065216 240.538773,259.111328 
	C240.548523,259.287384 240.558273,259.463409 240.568039,259.639435 
	C242.152176,259.639435 243.736313,259.639435 245.320465,259.639435 
	C245.317490,259.496155 245.314514,259.352844 245.311539,259.209564 
	C244.851181,259.133636 244.390823,259.057709 243.303314,258.972961 
z"/>
<path fill="#000000" opacity="1.000000" stroke="none" 
	d="
M273.638824,187.616058 
	C269.873413,188.804245 266.470428,189.821472 262.450165,191.023224 
	C267.539734,184.519852 293.472870,179.834167 306.229492,183.038254 
	C294.801880,184.617630 283.881561,182.573090 273.638824,187.616058 
z"/>
<path fill="#000000" opacity="1.000000" stroke="none" 
	d="
M283.472656,318.313782 
	C286.258453,318.756897 288.696808,319.128418 291.135162,319.499939 
	C291.109070,319.908539 291.083008,320.317108 291.056946,320.725708 
	C288.431519,320.725708 285.805420,320.741150 283.185394,320.622070 
	C283.129364,320.619537 283.143677,319.070038 283.472656,318.313782 
z"/>
<path fill="#423E3F" opacity="1.000000" stroke="none" 
	d="
M240.017822,158.008499 
	C239.751236,157.852585 239.515305,157.659302 239.175201,157.244385 
	C240.897827,157.196487 242.755234,157.332794 244.809143,157.732162 
	C245.005646,157.995209 244.983994,158.022568 244.570190,158.023407 
	C242.776855,158.018997 241.397339,158.013748 240.017822,158.008499 
z"/>
<path fill="#000000" opacity="1.000000" stroke="none" 
	d="
M294.120178,318.856140 
	C295.340302,318.856140 296.560425,318.856140 297.780548,318.856140 
	C297.777496,319.191925 297.774445,319.527710 297.771423,319.863495 
	C296.630463,319.751892 295.489502,319.640320 294.163574,319.266235 
	C293.978638,319.003693 294.120178,318.856140 294.120178,318.856140 
z"/>
<path fill="#423E3F" opacity="1.000000" stroke="none" 
	d="
M247.134338,159.922119 
	C246.868729,159.959946 246.595276,159.976288 246.264603,159.753342 
	C245.617279,159.027786 245.300629,158.525177 244.983994,158.022568 
	C244.983994,158.022568 245.005646,157.995209 245.018372,157.981247 
	C245.820709,158.606277 246.610321,159.245270 247.134338,159.922119 
z"/>
<path fill="#423E3F" opacity="1.000000" stroke="none" 
	d="
M250.586975,162.575012 
	C250.586166,163.237030 250.467834,163.674438 250.349487,164.111832 
	C249.961960,163.645508 249.574432,163.179199 249.186905,162.712875 
	C249.614410,162.592056 250.041931,162.471222 250.586975,162.575012 
z"/>
<path fill="#413D3E" opacity="1.000000" stroke="none" 
	d="
M245.974152,241.365997 
	C246.130936,241.856964 246.270645,242.726547 246.199738,243.807053 
	C245.978455,243.260178 245.967773,242.502396 245.974152,241.365997 
z"/>
<path fill="#000000" opacity="1.000000" stroke="none" 
	d="
M293.904419,319.074036 
	C293.830200,319.144379 293.572296,318.758179 293.572296,318.758179 
	C293.572296,318.758179 293.949097,318.686981 294.034637,318.771545 
	C294.120178,318.856140 293.978638,319.003693 293.904419,319.074036 
z"/>
<path fill="#242122" opacity="1.000000" stroke="none" 
	d="
M244.570190,158.023407 
	C245.300629,158.525177 245.617279,159.027786 246.127991,159.763412 
	C244.301331,159.570770 242.280579,159.145126 240.138824,158.363983 
	C241.397339,158.013748 242.776855,158.018997 244.570190,158.023407 
z"/>
<path fill="#252122" opacity="1.000000" stroke="none" 
	d="
M235.314041,257.193024 
	C235.202621,255.976044 235.202621,255.040680 235.202621,254.105331 
	C235.653702,254.074844 236.104782,254.044357 236.555862,254.013885 
	C236.555862,255.453445 236.555862,256.893005 236.555862,258.332581 
	C236.179062,258.046600 235.802261,257.760620 235.314041,257.193024 
z"/>
<path fill="#252122" opacity="1.000000" stroke="none" 
	d="
M248.931519,263.077728 
	C248.699875,263.877502 248.432236,264.388489 248.164597,264.899445 
	C247.873459,264.067230 247.582321,263.235046 247.291199,262.402832 
	C247.825958,262.531555 248.360733,262.660248 248.931519,263.077728 
z"/>
<path fill="#252122" opacity="1.000000" stroke="none" 
	d="
M243.616882,258.977356 
	C244.390823,259.057709 244.851181,259.133636 245.311539,259.209564 
	C245.314514,259.352844 245.317490,259.496155 245.320465,259.639435 
	C243.736313,259.639435 242.152176,259.639435 240.568039,259.639435 
	C240.558273,259.463409 240.548523,259.287384 240.538773,259.111328 
	C241.460281,259.065216 242.381805,259.019104 243.616882,258.977356 
z"/>
</svg>